<?xml version="1.0" encoding="utf-8"?>
<!-- Generator: Adobe Illustrator 27.3.1, SVG Export Plug-In . SVG Version: 6.00 Build 0)  -->
<svg version="1.1" id="Layer_1" xmlns="http://www.w3.org/2000/svg" xmlns:xlink="http://www.w3.org/1999/xlink" x="0px" y="0px"
	 viewBox="0 0 396.85 396.85" style="enable-background:new 0 0 396.85 396.85;" xml:space="preserve">
<style type="text/css">
	.st0{fill:#FFFFFF;}
	.st1{fill:none;stroke:#000000;stroke-width:0.25;stroke-miterlimit:10;}
</style>
<circle class="st0" cx="198.43" cy="198.43" r="198.43"/>
<g>
	<path d="M278.4,145.85c0.65-1.67,2.95-4.7,2.38-5.32c-0.13-0.15-0.31-0.28-0.54-0.28c-0.75,0-2.16,1.41-5.14,8.31
		c-9.68,21.46,1.16,29.38,6.1,39.83c2.91,5.36,4.09,9.41,3.76,12.86l-0.04,0.01c0,0,0,0.14-0.01,0.26
		c-0.06,0.52-0.13,1.04-0.27,1.54c-0.01,0.03-0.02,0.06-0.03,0.09c-0.17,0.62-0.39,1.22-0.67,1.82c0,0,0,0.01-0.01,0.01
		c-0.29,0.61-0.63,1.21-1.03,1.79c-0.31,0.46-0.57,0.88-0.83,1.29c-1.71,2.28-4.57,4.89-9.04,7.53
		c-3.15-12.14-8.39-27.07-16.58-45.96c-4.7-13.59,1.17-19.99,3.31-22.05c1.11-1.07,1.17-1.7,0.52-1.7c-0.59,0-1.77,0.53-3.25,1.75
		c-21.72,19.71,9.52,53.22,11.75,90.92c6.22,61.36-53.49,76.72-64.26,78.64c-2.72,0.52-5.15,0.98-7.22,1.37
		c3.58-4.98,5.89-9.82,7.36-13.71c4.25-11.27,7.3-24.23-4.31-56.84c9.36,7.34,15.89,9.54,15.73,8.59
		c12.6,3.85,19.98-2.26,23.35-6.54c0.18-0.13,0.4-0.34,0.72-0.74c13.19-17.56,14.29-27.5,1.19-47.67
		c-7.11-11.26-4.46-16.39-3.82-18.06c0.65-1.67,2.95-4.7,2.38-5.32c-0.13-0.15-0.31-0.28-0.54-0.28c-0.75,0-2.16,1.4-5.14,8.31
		c-9.68,21.46,1.16,29.38,6.1,39.83c4.58,8.45,4.9,13.65,1.72,18.38c-0.9,1.33-1.56,2.45-2.04,3.35
		c-10.84,8.26-22.35,6.4-27.75,4.78c-3.21-4.17-6.14-11.25-3.27-19.78c4.43-13.19,10.71-29.54-1.1-38.25
		c-0.28-6.07-12.47-15.07-18.27-16.02c-0.18-0.01-0.34-0.02-0.48-0.02c-2.77,0,2.47,2.32,4.65,4.68c2.29,2.48,4.91,10.76-0.87,22.03
		c-1.97,3.85-3.35,7.19-4.45,10.29c-0.77,1.59-1.29,3.27-1.56,5.01c-0.55,2.39-0.8,4.52-0.64,6.27c0.23,1.49,0.66,3.09,1.3,4.76
		c3.18,14.21,13.27,31.58,14.38,50.25c1.66,16.4-2.69,28.56-9.43,37.64c-1.98,0.41-2.67,0.6-1.34,0.51
		c0.36-0.03,0.68-0.09,1.04-0.12c-13.24,17.48-35.49,23.15-41.08,24.14c-7.8,1.49-12.88,2.4-10.57,2.23
		c30.87-2.43,47.31-14.96,56.19-26.88c51.87-6,69.35-35.4,75.53-51.76c4.26-11.3,7.56-23.95,1.46-49.23
		c1.82-1.37,4.1-3.37,6.46-5.99c0.17-0.07,0.44-0.32,0.85-0.82c0.23-0.3,0.38-0.56,0.6-0.86c2.13-2.59,4.22-5.69,6.01-9.4
		c6.28-11.93,4.9-21.51-5.42-37.4C275.11,152.65,277.75,147.53,278.4,145.85z M207.05,198.85c0.88,1.6,3.21,8.67-2.11,21.39
		c-4.91,11.74-1.86,21.95-0.68,24.3c0.38,0.95,0.32,1.34-0.01,1.34c-1.09,0-5.14-4.16-6.64-6.73
		C190.42,226.55,206.01,205.85,207.05,198.85z"/>
	<path d="M286.79,213.13c-1,0-1.08,0.93-1.38,1.78c-5.33,14.75-4.51,14.61,1.78,16.93c6.28,2.32,3.69,7.37,3.82,8.47
		c0.14,1.09,1.09,1.64,4.64-6.28c8.19-17.75,1-16.28-6.56-20.07C288.01,213.36,287.28,213.13,286.79,213.13z"/>
	<path d="M258.05,275.34c8.19-17.75,1-16.28-6.55-20.07c-1.09-0.59-1.81-0.82-2.31-0.82c-1,0-1.08,0.93-1.38,1.78
		c-5.32,14.75-4.51,14.61,1.78,16.93c6.28,2.32,3.69,7.37,3.82,8.47C253.54,282.72,254.5,283.26,258.05,275.34z"/>
	<path d="M236.79,281.42c8.19-17.75,1-16.28-6.55-20.07c-1.09-0.59-1.81-0.82-2.31-0.82c-1,0-1.08,0.93-1.38,1.78
		c-5.32,14.75-4.51,14.61,1.77,16.93c6.28,2.32,3.69,7.37,3.83,8.46C232.28,288.79,233.24,289.34,236.79,281.42z"/>
	<path d="M111.61,257.7c-9.83,2.03-16.24,3.27-13.33,3.02c56.23-5.25,74.18-36.52,80.32-53.56c2.3-6.37,4.46-17.82,4.79-31.08
		c0.01-0.07,0.01-0.13,0.01-0.2c3.67,0.31,7,0.31,9.89,0.18c15.13-0.7,31.54-3.52,63.23-32.85c0.09-0.09,0.17-0.18,0.26-0.28
		c7.78-8.22,13.6-15.13,17.95-20.89c0.06-0.07,0.12-0.12,0.19-0.2c14.13-16.81,15.77-26.68,3.8-47.53
		c-6.48-11.63-3.56-16.6-2.82-18.24c0.74-1.63,3.21-4.53,2.67-5.18c-0.13-0.16-0.31-0.31-0.56-0.31c-0.76,0-2.25,1.39-5.56,8.01
		c-10.85,20.89-0.45,29.4,3.9,40.1c3.3,6.97,3.97,11.69,2.33,15.64c-2.11,0.87-4.21,2.01-6.3,3.35c0.07-0.76,0.11-1.55,0.11-2.37
		c-0.04-11.53-8.47-24.86-12.64-33.98c-4.17-9.12-2.25-15.68-1.53-16.98c0.73-1.3,2.33-2.94,1.14-3.55
		c-1.19-0.61-3.83,4.09-5.54,9.53c-1.28,3.96-3.18,10.42-2.15,17.52c1.04,7.1,12.6,28.69,14.31,32.52c0.26,0.49,0.47,0.97,0.62,1.45
		c-3.07,2.47-6.17,5.29-9.34,8.29c0.3-1.39,0.47-2.91,0.46-4.56c-0.04-10.38-7.62-22.37-11.37-30.58
		c-3.75-8.21-2.03-14.1-1.37-15.28c0.65-1.17,2.1-2.64,1.02-3.19c-1.08-0.55-3.44,3.68-4.98,8.57c-1.15,3.57-2.86,9.38-1.93,15.76
		c0.93,6.38,11.34,25.82,12.87,29.26c0.82,1.55,1.03,2.98,0.83,4.29c-10,9.64-20.94,20.25-34.28,26.97
		c-12.64,7.04-24.39,9.75-35.04,9.65c0.33-23.28-2.33-54.67-26.5-80.73c-35.54-38.3-48.4-5.93-47.59,18.56
		c1.32,15.02,7.52,39.92,39.74,57.49c11.56,6.3,17.26,6.55,24.81,8.16c0.74,12.38-0.77,23.94-3.96,35.19
		C156.81,243.42,120.09,256.06,111.61,257.7z M133.26,147.86c-17.93-15.8-21.09-28.89-21.74-39.49c-0.25-5.17,0.58-10.7,3.77-15.47
		c8.98-13.42,30.13-0.76,45.82,33.67c7.26,15.93,11.21,30.23,12.56,43.54C156.14,167.04,142.38,156.87,133.26,147.86z"/>
</g>
</svg>
