<svg version="1.1" id="Layer_1" xmlns="http://www.w3.org/2000/svg" xmlns:xlink="http://www.w3.org/1999/xlink" x="0px" y="0px"
	 width="100%" viewBox="0 0 1024 1024" enable-background="new 0 0 1024 1024" xml:space="preserve">
<path fill="#000000" opacity="1.000000" stroke="none" 
	d="
M544.468628,1025.000000 
	C545.212402,1023.462463 546.946594,1023.706299 548.594604,1023.652405 
	C563.016724,1023.180847 577.232239,1020.985352 591.503052,1018.993103 
	C615.864502,1015.592041 639.584167,1009.592102 663.097473,1002.648987 
	C682.994995,996.773560 702.312134,989.274048 721.263611,980.849121 
	C750.341736,967.922363 777.989502,952.386230 804.198120,934.375610 
	C822.106323,922.068970 838.927185,908.349792 855.234436,893.952576 
	C865.612122,884.790405 875.314453,874.979614 884.863403,865.036011 
	C897.935608,851.423523 909.912170,836.858765 921.440613,821.859192 
	C934.321716,805.099854 945.694336,787.429260 956.374146,769.283875 
	C968.422791,748.812683 978.710266,727.464600 987.724243,705.450684 
	C1002.039795,670.489502 1012.031433,634.317932 1018.395813,597.183533 
	C1021.186584,580.900330 1023.589783,564.454407 1023.702942,547.823608 
	C1023.708374,547.020569 1024.046997,546.219788 1024.615234,545.208984 
	C1025.000000,704.865051 1025.000000,864.730164 1024.996094,1024.595215 
	C1024.996094,1024.730103 1024.936890,1024.865112 1024.905273,1025.000000 
	C1012.249268,1025.000000 999.593323,1025.000000 986.595947,1024.807251 
	C986.325562,1024.306763 986.497009,1023.744812 986.453247,1023.727478 
	C983.297913,1022.479980 979.986206,1021.833374 976.841553,1020.328247 
	C973.124329,1018.548889 971.303223,1023.695068 967.237488,1023.474426 
	C968.253174,1024.353516 968.626587,1024.676758 969.000000,1025.000000 
	C827.645752,1025.000000 686.291565,1025.000000 544.468628,1025.000000 
z"/>
<path fill="#000000" opacity="1.000000" stroke="none" 
	d="
M1.000000,548.468628 
	C2.541587,549.210327 2.309908,550.944336 2.346462,552.592896 
	C2.633465,565.536316 4.540554,578.322937 6.493730,591.071472 
	C9.755833,612.363525 14.373327,633.378418 20.213900,654.133911 
	C25.976301,674.611572 33.324398,694.523560 41.555134,714.088013 
	C54.596981,745.088440 70.963852,774.308960 90.001732,802.041687 
	C100.040771,816.665588 110.995483,830.555847 122.312157,844.211731 
	C136.642212,861.503906 152.496994,877.327515 168.897949,892.533203 
	C184.677826,907.163147 201.711304,920.380432 219.380493,932.756714 
	C241.307571,948.115356 264.318146,961.666443 288.275726,973.473328 
	C310.412720,984.382935 333.324646,993.535095 356.969147,1000.877319 
	C374.693939,1006.381165 392.533966,1011.285950 410.724945,1014.896057 
	C425.486023,1017.825500 440.310699,1020.263000 455.309357,1021.849976 
	C463.988770,1022.768372 472.731628,1023.081665 481.683044,1024.711670 
	C329.645782,1025.000000 177.291550,1025.000000 24.517921,1024.721436 
	C22.412994,1021.887329 22.815310,1017.938904 20.100437,1016.361694 
	C15.911294,1013.927917 11.326949,1014.823120 6.781271,1016.243347 
	C2.116313,1017.700867 1.477575,1020.930237 2.000000,1025.000000 
	C-0.065486,1024.101685 1.064431,1022.300232 1.061162,1021.004395 
	C0.982623,989.866516 1.000000,958.728333 1.000000,927.590210 
	C1.000000,801.372559 1.000000,675.154968 1.000000,548.468628 
z"/>
<path fill="#000000" opacity="1.000000" stroke="none" 
	d="
M477.531342,1.000000 
	C476.765045,2.483521 475.047302,2.295488 473.389099,2.348753 
	C457.614868,2.855461 442.080475,5.414679 426.538879,7.880800 
	C404.239868,11.419169 382.372498,16.849344 360.821136,23.492294 
	C340.999146,29.602179 321.710388,37.171642 302.747406,45.591579 
	C274.879028,57.965706 248.537704,73.020294 223.439835,90.296539 
	C209.510574,99.884819 196.037582,110.051910 183.096359,120.959450 
	C170.006500,131.992294 157.169830,143.303955 145.417603,155.733490 
	C124.878357,177.456451 105.794281,200.355087 89.046997,225.225311 
	C72.192604,250.254593 57.447002,276.385712 45.055901,303.866577 
	C33.650436,329.161499 24.535349,355.263794 17.319088,382.061951 
	C12.230760,400.957855 8.506397,420.138275 5.699563,439.448639 
	C4.109701,450.386475 2.264914,461.395477 2.337503,472.546600 
	C2.346067,473.862122 2.506160,475.234467 1.296900,476.691833 
	C1.000000,328.645782 1.000000,180.291550 1.263905,31.675774 
	C7.536077,32.607864 13.994551,31.725388 19.496227,35.320866 
	C19.808510,35.524948 20.549507,35.377018 20.925138,35.135258 
	C28.314749,30.379232 36.984032,27.960340 43.986496,22.505468 
	C45.891228,21.021696 46.749863,19.296253 45.496845,16.902855 
	C43.595245,13.270600 43.867378,9.413122 45.215660,5.795025 
	C46.230453,3.071842 45.303169,1.875271 43.000000,1.000000 
	C187.687561,1.000000 332.375122,1.000000 477.531342,1.000000 
z"/>
<path fill="#000000" opacity="1.000000" stroke="none" 
	d="
M1025.000000,480.531342 
	C1023.103577,479.711853 1023.753723,477.715942 1023.669495,475.970703 
	C1022.998901,462.067566 1021.084778,448.320374 1019.084595,434.553314 
	C1016.986816,420.114685 1014.077393,405.870209 1010.742676,391.692841 
	C1002.011047,354.570312 988.944641,318.993774 971.855957,284.943512 
	C961.667786,264.643036 950.218872,245.067444 937.413147,226.225616 
	C920.286072,201.025375 901.313904,177.389221 880.051636,155.641266 
	C845.763611,120.569954 807.389221,90.780838 764.585999,66.624512 
	C736.147034,50.574703 706.473389,37.449509 675.644226,26.942696 
	C650.392700,18.336819 624.483582,12.021210 598.190247,7.518866 
	C582.061523,4.757058 565.770508,3.016501 549.221802,1.374904 
	C691.354248,1.000000 833.708435,1.000000 976.295044,1.256487 
	C974.433716,6.350514 976.553589,11.625910 974.998352,16.497982 
	C973.919312,19.878044 975.532349,22.032789 977.690430,24.381781 
	C981.147095,28.144230 985.995911,29.850716 989.727478,33.154938 
	C995.134949,37.943054 999.163757,43.798428 1002.945129,49.870686 
	C1005.012756,53.190876 1007.637024,54.826702 1012.015747,54.499725 
	C1016.287964,54.180702 1020.938354,53.348377 1025.000000,56.000000 
	C1025.000000,197.354233 1025.000000,338.708466 1025.000000,480.531342 
z"/>
<path fill="#000000" opacity="1.000000" stroke="none" 
	d="
M632.538818,199.359497 
	C633.908264,198.290207 635.074402,197.425293 636.375854,198.575775 
	C637.599365,199.657379 637.277283,201.042984 636.544922,202.225449 
	C626.844421,217.886780 631.687500,233.067749 638.409180,247.942810 
	C643.687439,259.623535 649.983215,270.843964 655.278931,282.517487 
	C662.464050,298.356018 668.377747,314.601501 666.186829,332.570099 
	C668.849731,332.774078 669.860352,330.998688 671.161255,329.870575 
	C675.690735,325.942688 679.937317,321.662201 684.667114,318.001160 
	C687.725708,315.633667 687.742188,313.628113 686.166260,310.417023 
	C676.041382,289.786072 665.959106,269.143799 656.470886,248.194244 
	C647.165344,227.647903 647.641113,207.270889 654.137207,186.427719 
	C656.763306,178.001633 659.414246,169.555313 664.389465,162.115860 
	C665.306946,160.743835 666.387329,159.451950 667.554504,158.285065 
	C668.441406,157.398468 669.698059,157.226212 670.776550,157.977921 
	C671.861267,158.734039 672.024841,159.879501 671.542419,161.101227 
	C671.420227,161.410904 671.317261,161.737442 671.140625,162.015015 
	C660.574524,178.620865 665.304138,195.010208 672.278259,211.092377 
	C676.580139,221.012451 681.921143,230.477844 686.657959,240.214340 
	C694.247803,255.815506 701.234924,271.657196 703.792664,289.014374 
	C704.418640,293.262085 704.471924,297.594177 704.846619,302.674408 
	C709.772156,300.080475 714.586243,298.194580 718.595703,295.222992 
	C721.658752,292.952789 721.437622,288.594055 721.545105,284.989349 
	C721.746521,278.233185 719.863892,271.785583 717.466492,265.559906 
	C713.752319,255.914597 709.349365,246.580292 704.236572,237.574326 
	C696.599792,224.122314 690.434265,210.147858 690.801270,194.228607 
	C691.010071,185.171829 692.967712,176.398178 696.131287,167.929428 
	C699.989624,157.600494 704.996460,147.814240 710.719727,138.401291 
	C711.924561,136.419617 713.374878,134.562622 714.892395,132.803802 
	C715.985779,131.536652 717.424683,130.321777 719.189392,131.705078 
	C720.724670,132.908554 719.974609,134.405884 719.269287,135.763504 
	C718.809326,136.648972 718.347168,137.553619 717.744751,138.341782 
	C707.678223,151.513626 708.591492,165.524811 714.470825,179.955948 
	C718.444214,189.709045 724.203552,198.541458 728.803406,207.975311 
	C734.750916,220.172989 739.599976,232.690628 740.949280,246.307968 
	C742.678894,263.761993 736.782166,279.114380 727.375122,293.325867 
	C715.951355,310.584076 702.424805,326.231567 689.222595,342.108978 
	C661.287354,375.704620 628.414185,403.689117 591.622314,427.109528 
	C557.207825,449.016663 519.610474,458.642731 478.872772,455.484924 
	C474.582306,455.152374 474.363770,457.369202 474.302612,460.581146 
	C473.860260,483.806183 471.067047,506.762238 464.339325,529.012878 
	C453.794769,563.886963 434.109558,592.980225 406.563660,616.697693 
	C372.635681,645.910278 332.421631,661.233826 289.000397,669.398376 
	C278.693115,671.336487 268.298828,672.584656 257.933563,674.076538 
	C256.642365,674.262390 255.295837,674.613892 254.034256,673.668945 
	C254.168930,671.473816 255.969208,671.885071 257.293579,671.591003 
	C277.570343,667.088562 298.200867,664.139771 317.563904,655.901917 
	C358.704590,638.399109 394.138062,613.742920 420.321625,576.781189 
	C435.023712,556.027161 443.080994,532.944397 446.648438,508.010956 
	C448.987183,491.665222 449.853943,475.268311 449.855072,458.754150 
	C449.855469,452.870178 447.720856,451.013275 442.473145,450.247650 
	C420.445862,447.033905 400.038696,439.228821 380.816956,428.093781 
	C345.550568,407.664215 316.621643,381.068573 299.084534,343.590088 
	C288.072754,320.056854 281.842468,295.290405 282.816101,269.149323 
	C283.527283,250.054581 286.873535,231.405563 295.713318,214.176163 
	C302.365936,201.209763 311.607605,191.125366 326.740540,188.261124 
	C336.094971,186.490585 344.992950,188.521332 353.538879,192.161713 
	C371.513947,199.818726 385.971893,212.349274 399.586487,225.970062 
	C439.253784,265.655487 461.884827,313.776672 470.475311,368.907410 
	C473.892303,390.836243 475.484802,412.868073 475.319702,435.045990 
	C475.268677,441.902283 475.411041,441.998383 482.343231,441.567139 
	C509.520630,439.876617 534.821960,431.966705 559.079956,419.685333 
	C589.494324,404.287262 615.409668,383.075684 639.781616,359.673096 
	C643.026245,356.557526 646.210693,353.366913 649.613708,350.432312 
	C652.866760,347.626953 653.523743,344.286926 652.021301,340.548584 
	C650.347412,336.383453 648.432678,332.306183 646.450745,328.275269 
	C637.705017,310.487854 628.739014,292.814941 621.349548,274.384033 
	C616.203552,261.548859 615.539917,248.578354 618.490234,235.207718 
	C621.266418,222.626312 624.637329,210.308701 632.538818,199.359497 
M433.947968,373.395721 
	C430.526093,364.020599 427.411560,354.519409 423.627075,345.292999 
	C410.035461,312.156921 393.763824,280.553406 368.902191,254.211792 
	C358.192566,242.864655 346.358978,232.884827 330.726227,228.860168 
	C318.584015,225.734177 307.308105,229.452377 300.467407,238.808060 
	C293.597839,248.203217 289.898499,258.880951 289.403564,270.410767 
	C288.220612,297.970459 296.131805,322.863129 311.884796,345.479156 
	C324.100525,363.016846 339.677551,377.322968 355.437531,391.394257 
	C376.888580,410.546875 400.942261,425.533661 428.608002,434.176331 
	C434.589203,436.044861 440.604645,437.863281 447.929382,438.597565 
	C446.224792,416.094208 440.763184,395.008392 433.947968,373.395721 
z"/>
<path fill="#000000" opacity="1.000000" stroke="none" 
	d="
M554.428833,529.896606 
	C556.777710,542.766174 554.557983,554.854248 551.601746,566.869446 
	C548.615051,579.008484 544.345947,590.752502 540.494202,602.626709 
	C535.242859,618.815552 537.359680,634.109131 546.396545,648.517395 
	C548.001831,651.076904 550.002808,652.512573 553.011108,653.226807 
	C574.262207,658.272156 594.285706,655.603516 613.125854,644.341736 
	C623.833069,637.941406 633.158936,620.169006 629.112976,605.800903 
	C624.752808,590.317078 616.469666,576.862427 608.114502,563.429077 
	C599.106262,548.945618 593.277832,533.611877 594.741272,516.232422 
	C595.975830,501.570831 601.220276,488.091156 607.462158,474.957184 
	C609.175537,471.352203 611.086243,467.826263 613.135010,464.400787 
	C614.443665,462.212799 616.030823,458.721985 618.964966,460.383881 
	C622.079163,462.147705 619.643188,465.241730 618.296875,467.293488 
	C611.740723,477.284790 610.256836,487.902618 613.775940,499.272552 
	C616.411621,507.788391 620.728149,515.471436 625.492737,522.934021 
	C632.137817,533.342102 638.244812,544.032715 642.727722,555.585083 
	C650.144531,574.698059 650.172852,593.628235 641.163330,612.251892 
	C634.235718,626.571899 625.859497,639.952393 614.635620,651.365723 
	C601.530579,664.691833 585.635132,668.172668 567.445374,665.890930 
	C551.410583,663.879517 538.226990,656.395386 525.525391,647.351624 
	C523.907227,646.199463 522.280090,645.059937 520.239197,643.619751 
	C520.027588,646.207336 521.070618,648.081604 521.722534,649.984375 
	C530.157715,674.606628 536.878418,699.653687 539.049011,725.669189 
	C541.629089,756.592346 533.398010,785.026001 518.073303,811.653503 
	C516.413635,814.537231 514.665222,817.369751 512.972107,820.234436 
	C512.904236,820.349243 512.982788,820.550537 513.041321,821.461914 
	C521.651672,819.773315 530.286682,818.511475 538.692566,816.356201 
	C573.822449,807.348816 606.192749,792.526245 634.298462,769.287842 
	C667.852783,741.544495 688.323364,706.177368 693.440002,662.810120 
	C697.874573,625.224182 692.444397,588.520325 680.900391,552.569763 
	C672.138855,525.284424 660.736145,498.953522 652.091614,471.639832 
	C647.207214,456.207092 643.099792,440.566711 643.743164,424.187531 
	C644.437622,406.509308 651.062683,391.514709 665.085876,380.284912 
	C667.393921,378.436676 669.886475,376.025452 673.418213,377.402802 
	C674.270386,379.836578 672.640381,381.047974 671.409546,382.288055 
	C658.933716,394.858337 656.884033,410.048370 659.935852,426.665314 
	C661.674377,436.131744 665.914124,444.651398 669.573364,453.380280 
	C683.037415,485.497864 695.300110,518.033386 704.537842,551.651611 
	C704.876526,552.884216 705.482544,554.043335 705.966309,555.242188 
	C723.827637,546.613098 736.540161,530.035217 735.630554,515.660889 
	C735.116394,507.535706 732.180054,500.114471 728.748596,492.854767 
	C724.253723,483.345032 718.981628,474.254700 713.194885,465.502411 
	C696.927673,440.898590 696.602051,415.294708 707.937134,388.869720 
	C711.087036,381.526611 714.042847,374.073792 718.401550,367.317535 
	C719.296082,365.930908 720.322998,364.592743 721.483459,363.425690 
	C722.510620,362.392609 723.893005,362.261536 725.138245,363.159363 
	C726.344543,364.029144 726.007141,365.232208 725.503479,366.315582 
	C724.591675,368.276733 723.759399,370.305420 722.595459,372.113831 
	C715.648438,382.907471 716.100464,394.158905 720.442444,405.631195 
	C723.106689,412.670471 726.805969,419.181610 730.855713,425.518372 
	C738.858276,438.040375 746.056030,450.951172 750.343262,465.321533 
	C755.274109,481.849396 754.011658,497.876556 746.987244,513.530701 
	C738.621094,532.174927 727.425964,548.745300 711.348938,561.666382 
	C708.662048,563.825806 708.043823,566.070007 708.836731,569.488831 
	C712.673767,586.033142 715.379456,602.771423 716.234558,619.761292 
	C717.922363,653.294617 709.315735,684.454346 693.829163,713.842651 
	C669.950012,759.157288 632.517761,788.922119 585.344482,807.287476 
	C561.784058,816.459961 537.274170,821.777466 512.301697,825.158264 
	C509.966980,825.474243 508.245728,826.321472 506.827576,828.133179 
	C482.236938,859.549011 449.156494,877.226868 411.294189,887.198486 
	C396.123138,891.194092 380.617645,893.148499 365.094147,895.027100 
	C364.271332,895.126587 363.431946,895.160156 362.753326,893.923096 
	C364.954285,892.055115 367.807312,892.100281 370.401855,891.670288 
	C393.802063,887.792603 416.738708,882.403381 438.145294,871.733215 
	C456.643402,862.512817 473.560516,851.119629 487.610016,835.818726 
	C490.203857,832.993835 492.966644,830.439697 494.318451,826.285034 
	C495.096619,823.893494 498.953644,822.124390 500.819458,819.298401 
	C516.306824,795.840393 522.369080,769.969971 522.064880,742.056091 
	C521.704163,708.955994 512.275574,678.082397 500.526886,647.685791 
	C493.557495,629.654297 487.572357,611.320435 482.202118,592.754150 
	C478.949371,581.508423 481.551422,570.871826 485.048462,560.495972 
	C488.603668,549.947632 493.103638,539.709412 498.234161,529.761902 
	C504.277802,518.044006 507.756958,505.649506 506.750732,492.256714 
	C506.027161,482.626007 502.749146,474.529572 494.262604,469.020264 
	C491.581848,467.279968 488.308929,465.962311 486.893463,462.671844 
	C488.436157,460.173950 490.529205,461.002502 492.314453,461.599487 
	C510.306427,467.615753 525.110474,478.223083 534.877991,494.463654 
	C538.199219,499.985840 541.190979,505.424042 545.655029,510.157776 
	C550.687439,515.494202 553.148010,522.265259 554.428833,529.896606 
M532.106018,560.683655 
	C536.782837,546.950867 539.872864,533.098694 535.522217,518.632141 
	C533.513184,521.838745 532.042053,525.144775 530.527893,528.430969 
	C524.398193,541.734192 517.377502,554.651062 512.622314,568.553040 
	C508.408417,580.872803 504.670349,593.306580 507.355927,606.623291 
	C509.796783,618.726501 517.570068,626.850586 526.992371,633.845337 
	C527.352600,632.940430 527.304077,632.301819 527.085815,631.727783 
	C521.679565,617.506531 521.029724,602.965271 523.484619,588.033997 
	C525.017395,578.711060 528.798584,570.210815 532.106018,560.683655 
z"/>
<path fill="#000000" opacity="1.000000" stroke="none" 
	d="
M586.863770,673.510742 
	C588.417542,672.569336 589.827759,672.421997 591.038635,672.958496 
	C599.080078,676.521729 607.628296,679.005737 615.163818,683.625977 
	C622.525757,688.139954 622.648438,695.496826 621.106567,702.704834 
	C618.125793,716.639709 612.057983,729.407593 604.911316,741.657837 
	C604.056396,743.123230 602.995789,745.416931 600.878418,744.738647 
	C598.222778,743.887817 599.537598,741.364136 599.693420,739.535400 
	C600.596008,728.940491 598.305847,725.242249 588.326660,721.414978 
	C586.466125,720.701416 584.581665,720.028259 582.784241,719.176270 
	C576.920837,716.396851 574.664734,712.681335 575.919739,706.354126 
	C578.153381,695.093079 581.724548,684.216370 586.863770,673.510742 
z"/>
<path fill="#000000" opacity="1.000000" stroke="none" 
	d="
M631.597778,686.915527 
	C633.737183,677.722107 636.999329,669.334961 639.930115,660.839783 
	C641.245300,657.027832 643.613464,656.058716 647.301575,657.677307 
	C652.942383,660.152954 658.649658,662.476868 664.319031,664.887817 
	C674.858582,669.370056 678.257324,674.974609 676.120728,686.099609 
	C673.356567,700.492249 666.904663,713.489807 659.687134,726.107239 
	C658.815247,727.631470 657.699158,729.755981 655.532715,728.887451 
	C653.282410,727.985291 654.374023,725.775818 654.580383,724.019653 
	C655.774536,713.855042 653.234863,709.616455 643.768311,705.958130 
	C642.681702,705.538147 641.572327,705.176270 640.488525,704.749268 
	C631.077454,701.041809 629.153870,697.293701 631.597778,686.915527 
z"/>
<path fill="#000000" opacity="1.000000" stroke="none" 
	d="
M764.838501,603.692383 
	C761.087158,610.490784 759.267151,618.109558 753.250732,623.065491 
	C750.168091,620.811707 751.590027,618.530396 751.748840,616.545654 
	C752.526367,606.828857 750.163696,602.958801 741.038452,599.420715 
	C726.848267,593.918701 725.306152,590.962769 729.660461,576.215576 
	C731.821899,568.895447 734.524231,561.736694 736.822021,554.454529 
	C738.084045,550.454895 740.714844,549.666504 744.165649,551.079407 
	C750.927002,553.847900 757.731689,556.564331 764.278381,559.789734 
	C772.809937,563.993042 775.170471,570.483704 772.835449,581.325928 
	C771.180176,589.012146 768.100586,596.183533 764.838501,603.692383 
z"/>
</svg>